# xmcd
#
# Track frame offsets:
#	225
#	22078
#	41243
#	58944
#	81933
#	102325
#	123084
#	144670
#
# Disc length: 2178 seconds
#
# Revision: 0
# Processed by: cddbd v1.5.2PL0 Copyright (c) Steve Scherf et al.
# Submitted via: EasyCDDAExtractor 10.0.6.1
#
DISCID=72087f08
DTITLE=Dos en Punto - 2 en punto
DYEAR=1998
DGENRE=Merengue
TTITLE0=Ay mama Ines
TTITLE1=El Chulo
TTITLE2=El chupa chupa
TTITLE3=Por una negrita
TTITLE4=Noche de discoteque
TTITLE5=Momentos
TTITLE6=El mordelon
TTITLE7=Restregalo
EXTD=
EXTT0=
EXTT1=
EXTT2=
EXTT3=
EXTT4=
EXTT5=
EXTT6=
EXTT7=
PLAYORDER=
